<svg width="32" height="32" viewBox="0 0 32 32" fill="none" xmlns="http://www.w3.org/2000/svg">
<path d="M26.8281 23.8625C26.2386 22.4662 25.3832 21.1978 24.3094 20.1281C23.2389 19.0553 21.9707 18.2 20.575 17.6094C20.5625 17.6031 20.55 17.6 20.5375 17.5938C22.4844 16.1875 23.75 13.8969 23.75 11.3125C23.75 7.03125 20.2813 3.5625 16 3.5625C11.7188 3.5625 8.25002 7.03125 8.25002 11.3125C8.25002 13.8969 9.51564 16.1875 11.4625 17.5969C11.45 17.6031 11.4375 17.6062 11.425 17.6125C10.025 18.2031 8.76877 19.05 7.69064 20.1313C6.61786 21.2018 5.76253 22.4699 5.17189 23.8656C4.59165 25.232 4.27871 26.697 4.25002 28.1812C4.24918 28.2146 4.25503 28.2478 4.26722 28.2788C4.27941 28.3099 4.2977 28.3382 4.32099 28.3621C4.34429 28.386 4.37213 28.4049 4.40288 28.4179C4.43363 28.4308 4.46665 28.4375 4.50002 28.4375H6.37502C6.51252 28.4375 6.62189 28.3281 6.62502 28.1938C6.68752 25.7812 7.65627 23.5219 9.36877 21.8094C11.1406 20.0375 13.4938 19.0625 16 19.0625C18.5063 19.0625 20.8594 20.0375 22.6313 21.8094C24.3438 23.5219 25.3125 25.7812 25.375 28.1938C25.3781 28.3313 25.4875 28.4375 25.625 28.4375H27.5C27.5334 28.4375 27.5664 28.4308 27.5972 28.4179C27.6279 28.4049 27.6557 28.386 27.679 28.3621C27.7023 28.3382 27.7206 28.3099 27.7328 28.2788C27.745 28.2478 27.7509 28.2146 27.75 28.1812C27.7188 26.6875 27.4094 25.2344 26.8281 23.8625ZM16 16.6875C14.5656 16.6875 13.2156 16.1281 12.2 15.1125C11.1844 14.0969 10.625 12.7469 10.625 11.3125C10.625 9.87813 11.1844 8.52812 12.2 7.5125C13.2156 6.49687 14.5656 5.9375 16 5.9375C17.4344 5.9375 18.7844 6.49687 19.8 7.5125C20.8156 8.52812 21.375 9.87813 21.375 11.3125C21.375 12.7469 20.8156 14.0969 19.8 15.1125C18.7844 16.1281 17.4344 16.6875 16 16.6875Z" fill="white"/>
</svg>
